HIERARCHY
ROOT Hips
{
	OFFSET 0.00000 0.00000 0.00000
	CHANNELS 6 Xposition Yposition Zposition Zrotation Yrotation Xrotation 
	JOINT LHipJoint
	{
		OFFSET 0 0 0
		CHANNELS 3 Zrotation Yrotation Xrotation
		JOINT LeftUpLeg
		{
			OFFSET 1.29432 -1.88279 0.59910
			CHANNELS 3 Zrotation Yrotation Xrotation
			JOINT LeftLeg
			{
				OFFSET 2.63039 -7.22694 0.00000
				CHANNELS 3 Zrotation Yrotation Xrotation
				JOINT LeftFoot
				{
					OFFSET 2.70674 -7.43672 0.00000
					CHANNELS 3 Zrotation Yrotation Xrotation
					JOINT LeftToeBase
					{
						OFFSET 0.15066 -0.41394 2.09027
						CHANNELS 3 Zrotation Yrotation Xrotation
						End Site
						{
							OFFSET 0.00000 -0.00000 1.07518
						}
					}
				}
			}
		}
	}
	JOINT RHipJoint
	{
		OFFSET 0 0 0
		CHANNELS 3 Zrotation Yrotation Xrotation
		JOINT RightUpLeg
		{
			OFFSET -1.37068 -1.88279 0.59910
			CHANNELS 3 Zrotation Yrotation Xrotation
			JOINT RightLeg
			{
				OFFSET -2.57023 -7.06166 0.00000
				CHANNELS 3 Zrotation Yrotation Xrotation
				JOINT RightFoot
				{
					OFFSET -2.76461 -7.59570 0.00000
					CHANNELS 3 Zrotation Yrotation Xrotation
					JOINT RightToeBase
					{
						OFFSET -0.24175 -0.64785 2.19719
						CHANNELS 3 Zrotation Yrotation Xrotation
						End Site
						{
							OFFSET -0.00000 -0.00000 1.14803
						}
					}
				}
			}
		}
	}
	JOINT LowerBack
	{
		OFFSET 0 0 0
		CHANNELS 3 Zrotation Yrotation Xrotation
		JOINT Spine
		{
			OFFSET -0.03138 2.03983 -0.23106
			CHANNELS 3 Zrotation Yrotation Xrotation
			JOINT Spine1
			{
				OFFSET -0.00325 2.06238 -0.06878
				CHANNELS 3 Zrotation Yrotation Xrotation
				JOINT Neck
				{
					OFFSET 0 0 0
					CHANNELS 3 Zrotation Yrotation Xrotation
					JOINT Neck1
					{
						OFFSET -0.00002 1.75318 0.18090
						CHANNELS 3 Zrotation Yrotation Xrotation
						JOINT Head
						{
							OFFSET 0.08806 1.75856 -0.25387
							CHANNELS 3 Zrotation Yrotation Xrotation
							End Site
							{
								OFFSET 0.02554 1.78597 -0.10684
							}
						}
					}
				}
				JOINT LeftShoulder
				{
					OFFSET 0 0 0
					CHANNELS 3 Zrotation Yrotation Xrotation
					JOINT LeftArm
					{
						OFFSET 3.09657 1.33597 -0.04414
						CHANNELS 3 Zrotation Yrotation Xrotation
						JOINT LeftForeArm
						{
							OFFSET 5.34298 -0.00000 -0.00000
							CHANNELS 3 Zrotation Yrotation Xrotation
							JOINT LeftHand
							{
								OFFSET 3.67262 -0.00000 -0.00000
								CHANNELS 3 Zrotation Yrotation Xrotation
								JOINT LeftFingerBase
								{
									OFFSET 0 0 0
									CHANNELS 3 Zrotation Yrotation Xrotation
									JOINT LeftHandIndex1
									{
										OFFSET 0.59930 -0.00000 -0.00000
										CHANNELS 3 Zrotation Yrotation Xrotation
										End Site
										{
											OFFSET 0.48317 -0.00000 -0.00000
										}
									}
								}
								JOINT LThumb
								{
									OFFSET 0 0 0
									CHANNELS 3 Zrotation Yrotation Xrotation
									End Site
									{
										OFFSET 0.49055 -0.00000 0.49055
									}
								}
							}
						}
					}
				}
				JOINT RightShoulder
				{
					OFFSET 0 0 0
					CHANNELS 3 Zrotation Yrotation Xrotation
					JOINT RightArm
					{
						OFFSET -3.16460 1.32273 -0.23382
						CHANNELS 3 Zrotation Yrotation Xrotation
						JOINT RightForeArm
						{
							OFFSET -5.54967 -0.01834 0.03348
							CHANNELS 3 Zrotation Yrotation Xrotation
							JOINT RightHand
							{
								OFFSET -3.69401 -0.00000 0.00000
								CHANNELS 3 Zrotation Yrotation Xrotation
								JOINT RightFingerBase
								{
									OFFSET 0 0 0
									CHANNELS 3 Zrotation Yrotation Xrotation
									JOINT RightHandIndex1
									{
										OFFSET -0.63811 -0.00000 0.00000
										CHANNELS 3 Zrotation Yrotation Xrotation
										End Site
										{
											OFFSET -0.51446 -0.00000 0.00000
										}
									}
								}
								JOINT RThumb
								{
									OFFSET 0 0 0
									CHANNELS 3 Zrotation Yrotation Xrotation
									End Site
									{
										OFFSET -0.52232 -0.00000 0.52232
									}
								}
							}
						}
					}
				}
			}
		}
	}
}
MOTION
Frames: 15
Frame Time: 0.133333
0.00 0.00 0.00 0 0 0 0 0 0 -21 0 0 0 0 0 0 0 0 0 0 0 0 0 0 21 0 0 0 0 0 0 0 0 0 0 0 0 0 0 0 0 0 0 0 0 0 0 -16 0 0 21 0 0 11 0 0 0 -8 0 0 0 0 0 0 0 0 0 0 0 0 0 0 0 0 0 0 0 0 8 0 0 0 0 0 0 0 0 0 0 0 0 0 0 0 0 0
0.00 0.00 0.00 88.3727 -86.2779 -88.6290 0.0000 0.0000 0.0000 -19.1994 1.0671 -23.8800 9.4742 17.1034 57.7161 1.2379 -13.7198 -20.7407 0.0748 -1.7643 -4.8546 0.0000 0.0000 0.0000 15.3495 11.9865 -21.7241 -10.2753 -17.5618 60.4047 -1.8871 3.6523 -25.0812 -0.9321 6.1501 -17.2206 -3.3721 -0.4121 9.1539 -0.7474 -0.9571 2.1323 1.2331 -0.4847 -2.8766 3.2564 2.6198 -13.2454 -2.3260 3.2015 9.2059 -0.9910 1.5263 5.0176 0.0000 0.0000 0.0000 -43.1242 -1.1997 -17.9874 25.8355 -37.0458 -8.7884 -0.0000 0.0000 -17.6776 23.8191 31.8275 13.1053 -7.1250 0.0000 -0.0000 -10.1040 63.8628 -4.6432 0.0000 0.0000 0.0000 63.0666 -4.5901 -29.5309 -48.4007 52.3298 -24.9025 0.0000 -0.0000 -20.4001 -56.0219 28.1810 -35.0201 7.1250 -0.0000 -0.0000 -14.1231 12.6627 -17.3458
0.00 0.00 0.00 86.8802 -86.3377 -85.8460 0.0000 0.0000 0.0000 -18.7033 1.6505 -22.2065 7.3816 15.6450 50.3032 -0.1608 -13.5314 -7.3645 0.0026 -0.3261 -0.8960 0.0000 0.0000 0.0000 13.9703 11.2550 -20.0963 -8.1110 -16.2003 52.9614 -0.5147 6.8672 -12.9330 -0.6058 4.9820 -13.8572 -3.3565 -0.6067 7.4464 -0.4312 -1.1197 1.5625 1.5465 -0.5537 -2.5040 2.6885 2.9175 -12.9985 -2.3518 3.7230 9.6607 -0.8648 1.7588 5.1233 -0.0000 -0.0000 0.0000 -37.7637 -0.3356 -21.7831 27.7277 -38.8643 -9.9523 -0.0000 0.0000 -19.0026 23.7173 33.0486 13.4735 -7.1250 0.0000 -0.0000 -11.1541 65.0519 -5.4399 -0.0000 -0.0000 0.0000 57.5057 -5.3530 -35.0121 -51.6094 53.6243 -27.4647 0.0000 -0.0000 -21.3703 -58.1656 28.7765 -37.7889 7.1250 -0.0000 -0.0000 -15.0497 14.8216 -18.9645
0.00 0.00 0.00 90.1920 -86.5956 -87.7511 0.0000 0.0000 0.0000 -17.3068 1.9677 -20.9565 5.4013 13.8220 42.5289 -0.2172 -9.3387 8.1316 0.0538 1.4967 4.1167 0.0000 0.0000 0.0000 12.1713 10.2504 -19.2969 -6.0554 -14.4818 45.2035 0.1320 6.5672 3.8309 -0.5438 4.7246 -13.1247 -2.9494 -0.3780 5.6421 -0.3975 -0.7104 0.9799 1.2986 -0.3441 -2.1234 2.6496 2.8067 -13.0546 -1.9949 3.5466 10.6623 -0.7556 1.6920 5.4340 -0.0000 -0.0000 0.0000 -31.7557 -0.6149 -24.7403 29.1561 -40.1590 -10.8612 -0.0000 0.0000 -19.0766 23.1112 33.7509 13.3388 -7.1250 0.0000 -0.0000 -12.4771 65.5732 -6.2444 -0.0000 -0.0000 0.0000 52.1074 -6.5541 -39.8213 -53.8294 54.4279 -29.2615 0.0000 -0.0000 -21.2443 -61.3224 28.7562 -41.3326 7.1250 -0.0000 -0.0000 -16.7002 17.1184 -21.6423
0.00 0.00 0.00 102.5600 -86.4995 -97.9554 0.0000 0.0000 0.0000 -12.3642 -6.4949 -11.3674 2.2315 9.3325 26.8410 -0.0238 2.7516 -0.6916 0.1761 -2.7030 -7.4530 0.0000 0.0000 0.0000 5.4511 17.5729 -12.8420 -3.1553 -10.9423 32.0854 0.0072 -2.8558 1.5401 -0.5987 4.9532 -13.7751 -3.2839 -0.5873 0.3646 -0.2788 -0.8093 -0.3693 1.5608 -0.3936 -0.5416 3.2598 3.1092 -10.6631 -1.5119 3.8272 14.2838 -0.6929 1.8794 6.1808 0.0000 -0.0000 0.0000 -9.0315 -0.5091 -31.8277 30.1581 -41.0285 -11.5133 -0.0000 0.0000 -16.1522 20.7064 33.9469 11.9191 -7.1250 0.0000 -0.0000 -15.5340 65.0853 -7.6295 0.0000 -0.0000 0.0000 25.4573 -3.3636 -48.0743 -47.6914 52.0209 -24.3422 0.0000 -0.0000 -17.8211 -57.1456 26.3899 -34.5380 7.1250 -0.0000 -0.0000 -15.2783 11.1618 -18.5496
0.00 0.00 0.00 99.0325 -87.4242 -97.5476 0.0000 0.0000 0.0000 -3.5190 -10.2352 1.5279 2.0122 8.8915 25.4566 0.3376 -0.0074 10.9789 0.0175 -0.8544 -2.3483 0.0000 0.0000 0.0000 -0.8991 19.5823 -0.9512 -2.6548 -10.1141 29.3471 0.0532 -9.7027 5.8420 -0.7532 5.5431 -15.4644 -2.5678 -1.3647 -1.1850 -1.0195 -1.8087 -0.7922 0.3741 -0.9031 -0.1014 3.0367 3.1392 -7.0262 1.4357 3.3641 17.3605 0.1994 1.8281 6.4652 -0.0000 -0.0000 0.0000 26.2601 -10.5178 -48.3063 36.2620 -45.6925 -15.7097 -0.0000 0.0000 -13.0920 21.5043 35.9581 13.0264 -7.1250 0.0000 -0.0000 -16.5771 67.2308 -8.9699 -0.0000 -0.0000 0.0000 -14.3778 7.8898 -51.9591 -43.6360 50.0825 -21.1874 0.0000 -0.0000 -10.8441 -44.7442 22.7093 -20.9381 7.1250 -0.0000 -0.0000 -9.4624 0.1634 -9.6213
0.00 0.00 0.00 109.7180 -87.1966 -108.3770 0.0000 0.0000 0.0000 -2.7013 -12.5519 2.4193 2.7606 10.2970 29.9441 -0.1489 -7.5834 -0.7551 1.6089 -7.9990 -22.7110 0.0000 0.0000 0.0000 -1.9376 23.1274 0.7288 -3.1126 -10.8751 31.8598 0.0817 -5.0643 -1.6963 -3.7963 11.8843 -35.3238 -2.6446 -1.6711 -0.8892 -1.0174 -2.2486 -1.4222 0.4353 -1.1122 -0.8989 2.3851 3.2234 -6.6425 1.8584 3.4586 18.0597 0.4472 1.8536 6.6001 -0.0000 0.0000 0.0000 30.9214 -12.7169 -50.4726 44.4692 -50.5058 -21.8283 -0.0000 0.0000 -13.0251 21.5416 35.5191 12.9168 -7.1250 0.0000 -0.0000 -16.0669 66.8260 -8.5398 -0.0000 0.0000 0.0000 -22.4168 12.7985 -53.4617 -47.7432 52.0437 -24.3831 0.0000 -0.0000 -7.5670 -45.6859 24.7170 -23.1840 7.1250 -0.0000 -0.0000 -9.5058 2.9953 -10.1270
0.00 0.00 0.00 117.5480 -86.9301 -117.1440 0.0000 0.0000 0.0000 -2.4048 -14.1983 0.9295 4.6158 12.9376 39.1354 0.8315 -12.1540 -17.1942 2.2673 -9.4019 -27.0608 0.0000 0.0000 0.0000 -2.7020 25.8715 -0.1230 -4.6911 -13.0273 39.4707 -0.8435 -2.9364 -18.6497 -3.9294 12.0659 -35.9656 -3.0927 -1.7448 1.2314 -0.8610 -2.4333 -1.5991 0.9225 -1.1766 -2.2413 1.9984 2.9094 -5.8053 1.7105 3.1669 16.9415 0.4171 1.6735 6.0915 0.0000 -0.0000 0.0000 34.2919 -15.8319 -53.9607 54.8971 -54.7893 -30.1319 -0.0000 0.0000 -11.9231 20.0220 33.5443 11.3851 -7.1250 0.0000 -0.0000 -15.9711 64.5102 -7.6363 0.0000 -0.0000 0.0000 -29.6134 16.6881 -56.4913 -55.6950 55.0492 -30.7849 0.0000 -0.0000 -5.1437 -41.3601 25.4334 -20.7111 7.1250 -0.0000 -0.0000 -6.8649 2.1719 -7.1710
0.00 0.00 0.00 123.4170 -85.5748 -127.1020 0.0000 0.0000 0.0000 -2.2177 -13.1944 -3.3557 8.8071 16.6820 55.4207 2.5158 -11.6728 -28.5928 3.8558 -11.9660 -35.6120 0.0000 0.0000 0.0000 -1.7394 30.0635 -2.4720 -8.6241 -16.5596 54.7807 -1.8452 -9.5271 -30.5840 -4.5279 12.8315 -38.7410 -5.3574 -1.2026 7.8922 -1.1733 -2.1861 -0.3324 2.0424 -0.9777 -4.6262 0.7110 1.3564 -6.8078 2.3825 1.1665 15.5794 0.7043 0.6932 5.8175 0.0000 0.0000 0.0000 36.2990 -19.9933 -57.3632 73.6607 -58.9668 -45.8988 -0.0000 0.0000 -10.1048 21.5048 32.1928 11.8552 -7.1250 0.0000 -0.0000 -13.1116 63.6022 -5.9665 0.0000 0.0000 0.0000 -34.4362 20.9829 -60.2155 -74.1327 59.0270 -46.3035 0.0000 -0.0000 -6.1446 -42.1951 28.4115 -23.3332 7.1250 -0.0000 -0.0000 -6.6065 5.9420 -7.3014
0.00 0.00 0.00 161.1730 -82.7285 -160.7830 0.0000 0.0000 0.0000 -20.1677 2.5145 -29.1245 15.2924 19.4602 76.1160 3.0761 -18.8722 -32.4491 0.0804 -1.8295 -5.0346 0.0000 0.0000 0.0000 19.8251 18.2987 -29.5236 -16.2493 -19.6593 78.9736 -2.9212 -0.7854 -32.6724 -1.9186 8.6945 -24.8441 -4.4286 0.3078 10.0270 -0.5544 -0.1605 2.9704 1.9381 -0.1208 -2.5199 -0.8925 0.5845 -10.9961 1.0905 0.8161 4.0299 0.5660 0.4301 3.2379 0.0000 0.0000 0.0000 -94.8895 1.8338 -9.7684 14.4616 -23.3907 -3.0089 -0.0000 -0.0000 0.7346 7.1544 33.2503 3.9371 -7.1250 0.0000 -0.0000 -29.6277 60.9379 -12.1101 0.0000 0.0000 0.0000 97.6621 2.6546 -19.7779 -12.4373 20.4572 -2.2528 0.0000 0.0000 0.6459 -27.2134 16.5975 -8.3562 7.1250 -0.0000 -0.0000 0.3991 -11.4508 0.3119
0.00 0.00 0.00 149.9460 -83.3263 -147.8230 0.0000 0.0000 0.0000 -19.2730 2.4315 -17.0483 5.2312 13.6395 41.8122 1.1837 -3.1269 21.8959 0.4821 4.4524 12.3531 0.0000 0.0000 0.0000 15.4897 13.3929 -14.5844 -5.1247 -13.5229 41.3588 -0.3665 1.1817 11.9260 -0.1535 2.5245 -6.9576 -2.7412 -0.7438 0.7597 -1.0471 -1.0460 -0.5801 0.4798 -0.5121 -0.9910 1.1863 1.3154 -11.4749 0.1142 1.4631 14.8374 -0.0335 0.7453 6.4084 0.0000 0.0000 0.0000 -70.5754 0.9158 -26.1699 13.7844 -22.4257 -2.7453 -0.0000 0.0000 -5.6724 19.2144 38.2385 12.1728 -7.1250 0.0000 -0.0000 -22.1114 68.6324 -12.7664 0.0000 0.0000 0.0000 78.2415 1.8401 -37.0379 -24.0413 35.2079 -7.7304 0.0000 -0.0000 -16.6295 -35.3337 17.4565 -12.0059 7.1250 -0.0000 -0.0000 -4.7775 -8.9590 -3.9895
0.00 0.00 0.00 130.9210 -81.8993 -142.6600 0.0000 0.0000 0.0000 1.8116 -14.6136 4.3473 7.8765 16.0277 52.1166 -0.1040 -24.1402 -16.3118 4.0551 -12.2333 -36.5625 0.0000 0.0000 0.0000 -8.4274 31.4181 -0.1026 -8.9793 -16.7944 56.0185 -2.0862 3.1821 -26.5195 -7.0659 15.3871 -49.1230 -5.5949 -2.0896 10.0412 -2.0294 -3.6206 -0.3949 1.5488 -1.6624 -5.8437 5.1530 2.9144 -6.0737 -0.6888 3.1231 17.8636 -0.8577 1.6595 6.5321 0.0000 0.0000 0.0000 55.9899 -16.2007 -69.2380 40.8839 -48.5849 -19.0995 -0.0000 0.0000 -5.0376 22.7841 34.6389 13.4280 -7.1250 0.0000 -0.0000 -13.6782 66.3449 -7.0980 0.0000 0.0000 0.0000 -55.9576 21.2876 -78.1970 -40.9759 48.6375 -19.1685 0.0000 -0.0000 -2.4517 -37.0605 19.9048 -14.4194 7.1250 -0.0000 -0.0000 -5.4483 -5.6671 -4.9064
0.00 0.00 0.00 124.8720 -82.1917 -130.5030 0.0000 0.0000 0.0000 1.3706 -10.3323 -6.8130 7.7737 15.9503 51.7435 2.3574 -13.5599 -27.8388 4.2001 -12.4220 -37.2418 0.0000 0.0000 0.0000 -6.1956 25.1684 -4.1092 -9.3924 -17.0537 57.4375 -2.7967 -6.6445 -34.4436 -6.1353 14.5582 -45.5222 -5.2059 -1.6552 9.7672 -2.7386 -3.0080 0.2562 0.4842 -1.4219 -5.1002 -1.8990 -1.4511 -4.1808 4.6773 -2.4586 10.8309 1.7931 -1.1319 4.4295 0.0000 0.0000 0.0000 34.0058 -13.0830 -55.0749 91.7002 -59.9891 -61.4724 -0.0000 0.0000 -8.8997 25.0971 33.8993 14.6401 -7.1250 0.0000 -0.0000 -10.1443 66.2916 -5.2326 0.0000 0.0000 0.0000 -28.6807 13.7864 -60.8347 -87.9566 59.9842 -58.2305 0.0000 -0.0000 -7.0748 -46.4285 26.8871 -25.4249 7.1250 -0.0000 -0.0000 -9.3523 5.9305 -10.4017
0.00 0.00 0.00 132.3870 -81.5009 -138.0050 0.0000 0.0000 0.0000 -0.2063 -9.7963 -0.9317 5.7754 14.2071 44.0734 1.7591 -9.1427 -23.7789 4.7214 -13.0630 -39.6047 0.0000 0.0000 0.0000 -5.3587 22.8761 -1.0213 -7.4520 -15.7010 50.5639 -2.2162 -5.1715 -30.3369 -6.1179 14.5416 -45.4530 -5.0293 -1.7530 6.5142 -2.7022 -2.9141 -0.7573 0.3111 -1.3793 -4.3384 -11.2812 -9.0814 0.3425 9.9676 -13.6476 13.5992 4.1509 -6.9265 5.4851 -0.0000 -0.0000 0.0000 26.2116 -12.2267 -42.1556 84.5643 -59.8881 -55.2943 -0.0000 0.0000 -7.9362 23.6274 36.1635 14.4744 -7.1250 0.0000 -0.0000 -14.1552 68.0680 -7.9050 -0.0000 -0.0000 0.0000 -25.7376 17.9540 -53.5207 -68.8869 58.2468 -41.8231 0.0000 -0.0000 -6.0565 -40.6139 21.7883 -17.6559 7.1250 -0.0000 -0.0000 -7.2401 -2.4018 -6.9870
0.00 0.00 0.00 169.1090 -77.8944 -167.2250 0.0000 0.0000 0.0000 -22.6854 0.3977 -15.8108 4.7821 13.1341 39.8726 0.8903 -10.2081 -17.2437 0.3274 3.6774 10.1707 0.0000 0.0000 0.0000 18.2702 13.9316 -11.2365 -4.9902 -13.3728 40.7804 -1.2969 4.3541 -20.5333 -0.1492 2.4892 -6.8598 -1.6891 -2.5173 2.4314 0.0945 -3.4025 0.3246 1.1467 -1.6960 -0.9242 -15.7164 -16.4679 5.1712 20.6403 -24.0307 1.2300 7.4145 -12.2351 3.9889 -0.0000 0.0000 0.0000 -65.7325 14.9896 -18.5318 15.0506 -24.2165 -3.2467 -0.0000 -0.0000 0.6033 17.0138 37.7444 10.6092 -7.1250 0.0000 -0.0000 -24.0444 67.5184 -13.3289 -0.0000 0.0000 0.0000 68.1997 1.7941 -23.1730 -22.5295 33.5703 -6.8764 0.0000 -0.0000 -4.9649 -41.6515 24.3712 -20.1546 7.1250 -0.0000 -0.0000 -7.2797 1.0253 -7.4690
